<svg xmlns="http://www.w3.org/2000/svg" width="500" height="150" version="1.0" viewBox="0 0 375 112.5"><path fill="#445ccd" d="M32.7 22.309H6.75L24.7 89.69h25.945L32.699 22.31M70.191 22.309H44.242l17.95 67.382H88.14L70.19 22.31"/><path fill="#8498f4" d="M51.469 89.691H25.523L43.47 22.31h25.949L51.468 89.69M88.965 89.691h-25.95l17.95-67.382h25.945L88.965 89.69"/><path fill="#fff" d="m132.466 67.596-3.141-18.234-3.187 18.234h-7.829l-4.015-25.312h6.422l1.953 16.812 2.86-16.812h7.593l2.844 16.812 1.953-16.812h6.422l-4.016 25.312ZM146.358 42.284h15.906v5.328h-9.75v4.406h8.125v5.328h-8.125v4.922h9.75v5.328h-15.906ZM165.18 42.284h8.922c.97 0 1.938.086 2.907.25a7.46 7.46 0 0 1 2.687.969c.813.492 1.461 1.21 1.953 2.156.489.95.735 2.226.735 3.828v.656c0 1.055-.2 1.938-.594 2.657a4.934 4.934 0 0 1-1.516 1.718 5.183 5.183 0 0 1 1.985 1.86c.508.793.765 1.828.765 3.109v.64c0 1.65-.265 2.97-.797 3.97-.53.992-1.226 1.734-2.078 2.234-.855.5-1.797.84-2.828 1.015-1.023.168-2.043.25-3.062.25h-9.078Zm9.25 15.062h-3.093v4.922h3.094c.343 0 .691-.054 1.046-.172.364-.113.672-.336.922-.671.258-.344.391-.836.391-1.485v-.265c0-.665-.133-1.16-.39-1.485a1.89 1.89 0 0 0-.923-.656 3.138 3.138 0 0 0-1.046-.188Zm-.421-9.734h-2.672v4.406h2.672c.3 0 .617-.039.953-.125.332-.093.613-.285.844-.578.226-.289.343-.726.343-1.312v-.391c0-.582-.117-1.02-.343-1.312a1.563 1.563 0 0 0-.844-.563 4.022 4.022 0 0 0-.953-.125ZM211.65 55.596c0 2.918-.36 5.25-1.078 7-.711 1.75-1.867 3.024-3.469 3.813-1.594.793-3.727 1.187-6.39 1.187h-8.11V42.284h8.11c2.663 0 4.796.39 6.39 1.172 1.602.773 2.758 2.043 3.469 3.812.719 1.762 1.078 4.102 1.078 7.016Zm-12.89 6.672h1.624c1.407 0 2.461-.25 3.172-.75.719-.508 1.203-1.258 1.453-2.25.25-1 .375-2.222.375-3.672v-1.312c0-1.469-.125-2.691-.375-3.672-.25-.988-.734-1.734-1.453-2.234-.71-.508-1.765-.766-3.172-.766h-1.625ZM214.346 42.284h15.907v5.328h-9.75v4.406h8.125v5.328h-8.125v4.922h9.75v5.328h-15.907ZM246.31 67.596h-8.438l-6.031-25.312h6.578l3.672 18.172 3.64-18.172h6.61ZM279.8 55.596c0 2.918-.359 5.25-1.078 7-.71 1.75-1.867 3.024-3.469 3.813-1.593.793-3.726 1.187-6.39 1.187h-8.11V42.284h8.11c2.664 0 4.797.39 6.39 1.172 1.602.773 2.758 2.043 3.47 3.812.718 1.762 1.077 4.102 1.077 7.016Zm-12.89 6.672h1.625c1.406 0 2.46-.25 3.172-.75.718-.508 1.203-1.258 1.453-2.25.25-1 .375-2.222.375-3.672v-1.312c0-1.469-.125-2.691-.375-3.672-.25-.988-.735-1.734-1.453-2.234-.711-.508-1.766-.766-3.172-.766h-1.625ZM288.653 58.893v8.703h-6.156V42.284h8.734c1.07 0 2.145.094 3.219.281 1.07.18 2.05.54 2.937 1.078.883.543 1.598 1.344 2.141 2.407.539 1.062.812 2.468.812 4.218v.64c0 2.063-.37 3.65-1.109 4.75-.73 1.106-1.656 1.903-2.781 2.392l3.89 9.546h-6.656l-3.297-8.703Zm0-5.312h2.828c.414 0 .82-.067 1.219-.203.394-.145.726-.422 1-.828.27-.415.406-1.024.406-1.829v-.265c0-.801-.137-1.406-.406-1.813-.274-.406-.606-.675-1-.812a3.551 3.551 0 0 0-1.219-.219h-2.828Zm0 0"/><g fill="#fff"><path d="M312.51 68.05c-3.398 0-5.906-.985-7.53-2.954-1.618-1.968-2.423-5.132-2.423-9.5v-1.312c0-4.383.805-7.555 2.422-9.516 1.625-1.957 4.133-2.937 7.531-2.937 3.414 0 5.93.98 7.547 2.937 1.614 1.961 2.422 5.133 2.422 9.516v1.312c0 4.368-.808 7.532-2.422 9.5-1.617 1.97-4.133 2.954-7.547 2.954Zm-.156-5.329h.328c.969 0 1.707-.289 2.219-.875.508-.582.852-1.406 1.031-2.468.188-1.07.281-2.332.281-3.782v-1.312c0-1.469-.093-2.727-.28-3.781-.18-1.063-.524-1.883-1.032-2.47-.512-.593-1.25-.89-2.219-.89h-.328c-.98 0-1.726.297-2.234.89-.5.587-.844 1.407-1.032 2.47-.187 1.054-.28 2.312-.28 3.78v1.313c0 1.45.093 2.711.28 3.782.188 1.062.532 1.886 1.032 2.468.508.586 1.254.875 2.234.875ZM331.328 58.893v8.703h-6.156V42.284h8.734c1.07 0 2.145.094 3.219.281 1.07.18 2.05.54 2.937 1.078.883.543 1.598 1.344 2.141 2.407.54 1.062.813 2.468.813 4.218v.64c0 1.763-.274 3.173-.813 4.235-.543 1.055-1.258 1.852-2.14 2.39a8.319 8.319 0 0 1-2.938 1.095c-1.074.18-2.148.265-3.219.265Zm0-5.312h2.828c.414 0 .82-.067 1.219-.203.395-.145.727-.422 1-.828.27-.415.406-1.024.406-1.829v-.265c0-.801-.136-1.406-.406-1.813-.273-.406-.605-.675-1-.812a3.551 3.551 0 0 0-1.219-.219h-2.828Zm0 0"/></g><path fill="#fff" d="M353.105 57.44c-1.836-.258-3.371-.656-4.61-1.187-1.23-.532-2.152-1.297-2.765-2.297-.617-1.008-.922-2.336-.922-3.985v-.359c0-2.352.774-4.238 2.328-5.656 1.563-1.414 3.867-2.125 6.922-2.125 3.195 0 5.535.71 7.016 2.125 1.488 1.418 2.234 3.664 2.234 6.734v.688h-6.172c0-1.438-.23-2.5-.687-3.188-.45-.695-1.246-1.047-2.39-1.047h-.329c-.887 0-1.555.227-2 .672-.438.45-.656.996-.656 1.64v.126c0 .523.086.965.265 1.328.188.355.563.652 1.125.89.563.231 1.407.422 2.532.579 1.832.242 3.375.632 4.625 1.172 1.257.543 2.21 1.312 2.859 2.312.656.992.984 2.32.984 3.984v.344c0 2.492-.797 4.422-2.39 5.797-1.586 1.375-3.922 2.063-7.016 2.063-3.074 0-5.414-.692-7.016-2.079-1.605-1.382-2.406-3.664-2.406-6.843v-.297h6.172c0 1.387.242 2.383.734 2.984.5.606 1.282.906 2.344.906h.328c1.063 0 1.82-.238 2.282-.718.468-.489.703-1.035.703-1.641v-.125c0-.5-.106-.926-.313-1.281-.199-.363-.594-.672-1.187-.922-.586-.25-1.45-.445-2.594-.594Zm0 0"/></svg>